<?xml version="1.0" standalone="no"?>
<!DOCTYPE svg PUBLIC "-//W3C//DTD SVG 20010904//EN"
 "http://www.w3.org/TR/2001/REC-SVG-20010904/DTD/svg10.dtd">
<svg version="1.0" xmlns="http://www.w3.org/2000/svg"
 width="900.000000pt" height="900.000000pt" viewBox="0 0 900.000000 900.000000"
 preserveAspectRatio="xMidYMid meet">

<g transform="translate(0.000000,900.000000) scale(0.100000,-0.100000)">
<path d="M4200 8359 c-824 -72 -1550 -366 -2177 -883 -59 -49 -180 -162 -268
-250 -619 -622 -995 -1403 -1101 -2291 -14 -112 -18 -223 -18 -435 0 -308 13
-468 60 -715 185 -965 709 -1805 1492 -2390 1009 -753 2342 -966 3542 -565
1330 444 2320 1583 2574 2960 38 207 56 385 63 610 27 938 -288 1847 -892
2577 -114 139 -359 384 -498 498 -590 488 -1267 777 -2042 871 -155 18 -586
26 -735 13z m2535 -1278 c22 -10 54 -34 71 -52 23 -25 265 -406 328 -516 15
-26 23 -106 15 -148 -17 -91 -46 -117 -310 -281 -134 -84 -258 -159 -275 -168
-87 -43 -199 -24 -265 47 -37 39 -280 422 -330 519 -44 86 -25 200 44 268 32
30 475 311 532 336 44 20 143 17 190 -5z m-1186 -212 c40 -22 79 -69 100 -119
15 -34 149 -531 157 -578 12 -73 -26 -157 -96 -213 -28 -23 -93 -45 -329 -109
-161 -44 -312 -80 -335 -80 -80 0 -179 66 -208 139 -6 14 -43 148 -84 296 -78
285 -87 345 -59 413 40 94 75 112 402 203 322 89 371 94 452 48z m-1330 -245
c64 -32 106 -87 121 -157 16 -82 40 -589 29 -638 -18 -81 -62 -134 -134 -165
-42 -18 -373 -43 -585 -43 -117 -1 -165 14 -215 65 -58 61 -63 85 -81 422 -16
297 -16 314 1 358 23 60 65 107 119 134 37 17 78 22 277 34 374 21 406 21 468
-10z m-1325 -88 c66 -20 110 -57 140 -118 l26 -52 0 -320 c0 -301 -2 -324 -21
-366 -27 -60 -54 -88 -114 -116 -49 -23 -55 -24 -371 -24 l-320 0 -52 26 c-63
31 -107 88 -122 158 -8 34 -11 153 -8 351 3 270 5 304 22 335 36 69 92 114
161 131 17 4 161 7 321 8 224 1 302 -2 338 -13z m3649 -950 c142 -53 271 -103
287 -111 73 -38 127 -143 118 -228 -5 -38 -182 -537 -214 -598 -36 -72 -142
-126 -227 -117 -39 5 -538 182 -597 213 -39 20 -96 87 -110 130 -22 68 -7 136
94 407 52 141 102 271 111 287 21 41 62 79 110 102 73 36 137 23 428 -85z
m-1233 -17 c61 -14 114 -51 146 -100 25 -40 71 -245 129 -577 25 -143 -12
-235 -117 -285 -62 -30 -561 -130 -645 -129 -93 1 -182 67 -212 157 -19 57
-112 558 -113 606 0 60 8 83 43 136 46 66 98 85 399 142 146 28 274 52 285 54
32 7 38 7 85 -4z m-1174 -147 c21 -11 51 -33 66 -49 53 -56 59 -87 81 -419 20
-300 20 -313 3 -358 -31 -81 -90 -133 -171 -150 -44 -9 -467 -36 -564 -36 -98
0 -151 20 -200 76 -47 53 -58 114 -77 429 -20 343 -18 355 56 427 27 26 66 52
87 58 45 14 544 50 624 45 30 -1 73 -12 95 -23z m-1242 -56 c66 -20 110 -57
140 -118 l26 -52 0 -320 c0 -301 -2 -324 -21 -366 -27 -60 -54 -88 -114 -116
-49 -23 -55 -24 -371 -24 l-320 0 -52 26 c-63 31 -107 88 -122 158 -8 34 -11
153 -8 351 3 270 5 304 22 335 36 69 92 114 161 131 17 4 161 7 321 8 224 1
302 -2 338 -13z m3289 -1096 c319 -33 338 -38 400 -111 62 -71 63 -100 28
-442 -19 -180 -37 -313 -47 -337 -21 -53 -92 -114 -150 -130 -41 -12 -84 -10
-356 18 -334 35 -353 39 -415 104 -42 43 -63 96 -63 155 0 26 13 173 29 326
24 225 33 286 51 322 35 72 118 124 201 125 19 0 165 -13 322 -30z m-1053 -4
c138 -4 184 -20 239 -82 62 -71 65 -92 54 -447 -8 -291 -10 -315 -30 -353 -25
-48 -72 -90 -123 -112 -50 -21 -657 -12 -711 11 -55 23 -104 72 -129 129 -22
51 -22 56 -16 348 4 162 12 316 17 342 12 51 64 120 110 143 61 32 147 35 589
21z m-2236 -50 c66 -20 110 -57 140 -118 l26 -52 0 -320 c0 -301 -2 -324 -21
-366 -27 -60 -54 -88 -114 -116 -49 -23 -55 -24 -371 -24 l-320 0 -52 26 c-63
31 -107 88 -122 158 -8 34 -11 153 -8 351 3 270 5 304 22 335 36 69 92 114
161 131 17 4 161 7 321 8 224 1 302 -2 338 -13z m1170 0 c66 -20 110 -57 140
-118 l26 -52 0 -320 c0 -301 -2 -324 -21 -366 -27 -60 -54 -88 -114 -116 -49
-23 -55 -24 -371 -24 l-320 0 -52 26 c-63 31 -107 88 -122 158 -8 34 -11 153
-8 351 3 270 5 304 22 335 36 69 92 114 161 131 17 4 161 7 321 8 224 1 302
-2 338 -13z m-1178 -1159 c68 -18 118 -58 149 -120 l25 -51 0 -314 c0 -210 -4
-328 -12 -353 -15 -52 -73 -117 -122 -140 -37 -17 -72 -19 -366 -19 -323 0
-325 0 -377 24 -63 30 -107 87 -123 159 -8 35 -10 153 -8 352 3 270 5 304 22
335 36 69 92 114 161 131 56 13 596 10 651 -4z m1170 0 c68 -18 118 -58 149
-120 l25 -51 0 -314 c0 -210 -4 -328 -12 -353 -15 -52 -73 -117 -122 -140 -37
-17 -72 -19 -366 -19 -323 0 -325 0 -377 24 -63 30 -107 87 -123 159 -8 35
-10 153 -8 352 3 270 5 304 22 335 36 69 92 114 161 131 56 13 596 10 651 -4z
m1199 -10 c54 -24 93 -63 119 -117 20 -42 21 -64 24 -332 2 -170 -1 -309 -7
-342 -14 -78 -58 -137 -123 -170 l-52 -26 -325 0 c-363 0 -372 2 -438 70 -62
64 -64 79 -61 450 l3 335 27 41 c15 23 41 52 59 65 62 44 103 48 429 46 269
-2 310 -4 345 -20z m1150 0 c54 -24 93 -63 119 -117 20 -42 21 -64 24 -332 2
-170 -1 -309 -7 -342 -14 -78 -58 -137 -123 -170 l-52 -26 -325 0 c-363 0
-372 2 -438 70 -62 64 -64 79 -61 450 l3 335 27 41 c15 23 41 52 59 65 62 44
103 48 429 46 269 -2 310 -4 345 -20z"/>
</g>
</svg>
