<?xml version="1.0" standalone="no"?>
<!DOCTYPE svg PUBLIC "-//W3C//DTD SVG 20010904//EN"
 "http://www.w3.org/TR/2001/REC-SVG-20010904/DTD/svg10.dtd">
<svg version="1.0" xmlns="http://www.w3.org/2000/svg"
 width="900.000000pt" height="900.000000pt" viewBox="0 0 900.000000 900.000000"
 preserveAspectRatio="xMidYMid meet">

<g transform="translate(0.000000,900.000000) scale(0.100000,-0.100000)">
<path d="M4279 8370 c-958 -59 -1836 -456 -2514 -1135 -628 -628 -1004 -1406
-1111 -2300 -25 -210 -25 -660 0 -870 129 -1080 673 -2027 1534 -2670 1009
-753 2342 -966 3542 -565 801 267 1505 803 1979 1505 360 532 577 1128 647
1777 35 322 18 749 -42 1076 -144 791 -509 1487 -1074 2052 -565 565 -1261
930 -2052 1074 -273 50 -638 73 -909 56z m904 -2223 l-668 -667 -3 498 -2 498
-73 -3 c-653 -27 -1238 -359 -1600 -908 -150 -228 -259 -518 -302 -805 -19
-125 -22 -395 -5 -525 25 -200 87 -413 174 -600 l44 -93 -245 -243 c-234 -234
-245 -243 -259 -224 -34 45 -128 220 -175 326 -97 219 -167 461 -206 716 -24
157 -24 576 0 733 92 590 331 1077 731 1489 478 491 1103 774 1784 808 l132 6
0 501 0 501 670 -670 670 -670 -667 -668z m1653 -361 c158 -272 266 -591 321
-946 25 -161 25 -556 0 -725 -74 -499 -285 -977 -595 -1345 -97 -115 -278
-293 -387 -380 -173 -137 -427 -287 -635 -375 -268 -114 -593 -187 -897 -202
l-133 -6 -2 -499 -3 -498 -668 667 -667 668 670 670 670 670 0 -500 0 -500
122 7 c68 3 154 11 192 18 640 105 1195 516 1476 1095 139 284 201 556 201
875 0 308 -63 584 -200 875 l-29 60 242 243 c132 133 245 241 250 239 5 -2 38
-52 72 -111z"/>
</g>
</svg>
