<?xml version="1.0" standalone="no"?>
<!DOCTYPE svg PUBLIC "-//W3C//DTD SVG 20010904//EN"
 "http://www.w3.org/TR/2001/REC-SVG-20010904/DTD/svg10.dtd">
<svg version="1.0" xmlns="http://www.w3.org/2000/svg"
 width="900.000000pt" height="900.000000pt" viewBox="0 0 900.000000 900.000000"
 preserveAspectRatio="xMidYMid meet">

<g transform="translate(0.000000,900.000000) scale(0.100000,-0.100000)">
<path d="M4279 8370 c-958 -59 -1836 -456 -2514 -1135 -628 -628 -1004 -1406
-1111 -2300 -25 -210 -25 -660 0 -870 129 -1080 673 -2027 1534 -2670 1009
-753 2342 -966 3542 -565 801 267 1505 803 1979 1505 360 532 577 1128 647
1777 35 322 18 749 -42 1076 -144 791 -509 1487 -1074 2052 -565 565 -1261
930 -2052 1074 -273 50 -638 73 -909 56z m663 -3122 l3 -2273 1043 1040 1043
1039 267 -267 267 -267 -1503 -1503 -1502 -1502 -1502 1502 -1503 1503 270
270 270 270 1042 -1042 1043 -1043 0 2273 0 2272 380 0 380 0 2 -2272z"/>
</g>
</svg>
